<svg width="202" height="58" viewBox="0 0 202 58" fill="none" xmlns="http://www.w3.org/2000/svg">
<g filter="url(#filter0_i_6_3)">
<path fill-rule="evenodd" clip-rule="evenodd" d="M55.3482 0.337081C56.0655 -0.397944 57.3121 0.15344 57.248 1.17734L56.5665 12.0578C56.5493 12.3322 56.4303 12.5903 56.2326 12.7819L20.3428 47.2535C18.8369 48.6411 17.7289 48.6411 15.5128 47.2535L7.65123 41.8007C7.21525 41.5107 7.04246 40.9556 7.23706 40.4702L9.85186 33.9476C10.1338 33.2442 11.0253 33.0257 11.6018 33.5187L15.4289 36.7919C16.7607 37.9309 18.7502 37.8414 19.9739 36.5874L55.3482 0.337081ZM56.7422 15.3707L44.7425 27.0019C44.5727 29.3632 44.4029 31.6029 44.2331 33.7208C44.0558 35.932 43.9006 37.8779 43.7677 39.5584C43.679 41.2389 43.6347 42.3666 43.6347 42.9416C43.6347 44.401 43.7677 46.0152 44.0336 47.7841C44.2995 49.5089 44.9422 51.1231 45.9616 52.6267C46.981 54.1303 48.488 55.3907 50.4825 56.4079C52.477 57.3808 55.1806 57.8673 58.5934 57.8673C61.3857 57.8673 63.8012 57.5135 65.8401 56.8059C67.9232 56.0983 69.6961 55.1696 71.1587 54.0198C72.6213 52.8699 73.7959 51.5432 74.6823 50.0396C75.6131 48.4917 76.3222 46.9218 76.8098 45.3297C77.3416 43.6934 77.6962 42.0571 77.8735 40.4208C78.0951 38.7845 78.2059 37.2808 78.2059 35.9099C78.2059 30.6472 77.12 26.6891 74.9482 24.0356C72.8208 21.3822 69.7404 20.0554 65.7071 20.0554C63.3137 20.0554 61.3857 20.5419 59.9231 21.5149C58.4604 22.4436 57.1529 23.903 56.0006 25.8931C56.2222 22.9743 56.3995 20.4314 56.5324 18.2644C56.6283 17.0931 56.6982 16.1286 56.7422 15.3707ZM35.1614 36.2887L24.9265 46.2092C25.0395 47.0089 25.1297 47.6665 25.1971 48.1821C25.3301 49.2435 25.463 50.1501 25.596 50.9019C25.729 51.9191 25.9727 52.8478 26.3273 53.6881C26.6376 54.5726 27.1473 55.3244 27.8564 55.9435C28.5212 56.6069 29.4298 57.1155 30.5822 57.4693C31.6903 57.8231 33.1307 58 34.9036 58C36.5879 58 37.7845 57.8673 38.4937 57.6019C39.2029 57.3808 39.5574 57.027 39.5574 56.5406C39.5574 56.1425 39.3801 55.1033 39.0256 53.4227C38.671 51.7422 38.1391 49.332 37.43 46.192L35.1614 36.2887ZM13.3501 48.2491L6.42196 43.6405C5.11401 42.7705 4.59566 41.1052 5.17947 39.6489L7.79426 33.1264C8.64022 31.0161 11.3145 30.3607 13.044 31.8399L16.7092 34.9745C17.278 32.8717 17.8469 30.8175 18.4158 28.8119C19.0806 26.468 19.8784 23.7482 20.8092 20.6525C21.4562 24.5555 22.0154 27.9521 22.4868 30.8425L31.6206 21.4826C31.3692 20.4355 31.1117 19.3628 30.8481 18.2644C30.6265 17.3356 30.3606 16.4069 30.0504 15.4782C29.7401 14.5937 29.3412 13.7977 28.8537 13.0901C28.3661 12.3825 27.7678 11.8076 27.0586 11.3654C26.3051 10.9673 25.3744 10.7683 24.2663 10.7683L17.2856 10.7683C16.0446 10.7683 15.1803 11.1885 14.6928 12.0287C14.2495 12.8248 13.5847 14.2399 12.6983 16.2743C11.7675 18.3086 10.7481 20.6746 9.64005 23.3723C8.532 26.07 7.42395 28.9224 6.31589 31.9297C5.16352 34.9812 4.12195 37.9 3.19119 40.6861C2.26043 43.4722 1.50695 45.9488 0.930764 48.1158C0.310255 50.327 0 51.9633 0 53.0247C0 54.2188 0.376735 55.1254 1.13021 55.7445C1.88368 56.4079 2.74797 56.8943 3.72305 57.2039C4.69814 57.5577 5.67322 57.7567 6.6483 57.8009C7.57907 57.8894 8.26606 57.9336 8.70928 57.9336C9.72869 57.9336 10.3935 57.8009 10.7038 57.5356C10.9697 57.3145 11.2135 56.7838 11.4351 55.9435C12.1503 53.0892 12.7886 50.5244 13.3501 48.2491ZM90.0804 57.204C88.7064 57.204 87.5762 57.0713 86.6898 56.8059C85.8477 56.4964 85.1607 56.0762 84.6288 55.5456C84.1413 55.0149 83.7867 54.3736 83.5651 53.6218C83.3878 52.8257 83.2991 51.9192 83.2991 50.902C83.2991 50.2386 83.3213 49.3099 83.3656 48.1159C83.4543 46.8776 83.5872 45.197 83.7645 43.0743C83.9418 40.9073 84.1413 38.1875 84.3629 34.9149C84.6288 31.5981 84.9391 27.5073 85.2936 22.6426C85.338 21.6697 85.4488 21.0948 85.6261 20.9179C85.759 20.7852 86.1136 20.7189 86.6898 20.7189H89.2826C90.6566 20.7189 91.7647 20.8515 92.6068 21.1169C93.4932 21.3822 94.1802 21.7802 94.6677 22.3109C95.1996 22.8416 95.5542 23.4829 95.7315 24.2347C95.9531 24.9865 96.0639 25.8268 96.0639 26.7555C96.0639 27.4188 96.0196 28.4139 95.9309 29.7406C95.8423 31.0674 95.7093 32.8806 95.532 35.1802C95.3991 37.4357 95.1996 40.266 94.9337 43.6713C94.6678 47.0324 94.3353 51.101 93.9364 55.8772C93.8921 56.4079 93.7813 56.7617 93.604 56.9386C93.4267 57.1155 93.05 57.204 92.4738 57.204H90.0804ZM85.3601 12.8911C85.3601 11.1222 86.0028 9.7291 87.2881 8.71194C88.5735 7.69478 90.302 7.1862 92.4738 7.1862C94.3797 7.1862 95.7536 7.58421 96.5958 8.38025C97.4822 9.13207 97.9254 10.1492 97.9254 11.4317C97.9254 13.068 97.3049 14.439 96.0639 15.5446C94.8672 16.606 93.0943 17.1367 90.7452 17.1367C87.1552 17.1367 85.3601 15.7215 85.3601 12.8911ZM145.512 56.8059C146.398 57.0713 147.528 57.204 148.902 57.204H151.296C151.872 57.204 152.249 57.1155 152.426 56.9386C152.603 56.7617 152.714 56.4079 152.758 55.8772C153.157 51.101 153.49 47.0324 153.756 43.6713C154.022 40.266 154.221 37.4357 154.354 35.1802C154.531 32.8806 154.664 31.0674 154.753 29.7406C154.842 28.4139 154.886 27.4188 154.886 26.7555C154.886 25.8268 154.775 24.9865 154.553 24.2347C154.376 23.4829 154.022 22.8416 153.49 22.3109C153.002 21.7802 152.315 21.3822 151.429 21.1169C150.587 20.8515 149.479 20.7189 148.105 20.7189H145.512C144.936 20.7189 144.581 20.7852 144.448 20.9179C144.271 21.0948 144.16 21.6697 144.116 22.6426C143.761 27.5073 143.451 31.5981 143.185 34.9149C142.963 38.1875 142.764 40.9073 142.586 43.0743C142.409 45.197 142.276 46.8776 142.188 48.1159C142.143 49.3099 142.121 50.2386 142.121 50.902C142.121 51.9192 142.21 52.8257 142.387 53.6218C142.609 54.3736 142.963 55.0149 143.451 55.5456C143.983 56.0762 144.67 56.4964 145.512 56.8059ZM146.11 8.71194C144.825 9.7291 144.182 11.1222 144.182 12.8911C144.182 15.7215 145.977 17.1367 149.567 17.1367C151.916 17.1367 153.689 16.606 154.886 15.5446C156.127 14.439 156.747 13.068 156.747 11.4317C156.747 10.1492 156.304 9.13207 155.418 8.38025C154.576 7.58421 153.202 7.1862 151.296 7.1862C149.124 7.1862 147.395 7.69478 146.11 8.71194ZM194.155 57.204C192.781 57.204 191.651 57.0713 190.764 56.8059C189.922 56.4964 189.235 56.0762 188.703 55.5456C188.216 55.0149 187.861 54.3736 187.64 53.6218C187.462 52.8257 187.374 51.9192 187.374 50.902C187.374 50.2386 187.396 49.3099 187.44 48.1159C187.529 46.8776 187.662 45.197 187.839 43.0743C188.016 40.9073 188.216 38.1875 188.437 34.9149C188.703 31.5981 189.014 27.5073 189.368 22.6426C189.413 21.6697 189.523 21.0948 189.701 20.9179C189.834 20.7852 190.188 20.7189 190.764 20.7189H193.357C194.731 20.7189 195.839 20.8515 196.681 21.1169C197.568 21.3822 198.255 21.7802 198.742 22.3109C199.274 22.8416 199.629 23.4829 199.806 24.2347C200.028 24.9865 200.138 25.8268 200.138 26.7555C200.138 27.4188 200.094 28.4139 200.006 29.7406C199.917 31.0674 199.784 32.8806 199.607 35.1802C199.474 37.4357 199.274 40.266 199.008 43.6713C198.742 47.0324 198.41 51.101 198.011 55.8772C197.967 56.4079 197.856 56.7617 197.679 56.9386C197.501 57.1155 197.125 57.204 196.548 57.204H194.155ZM189.435 12.8911C189.435 11.1222 190.077 9.7291 191.363 8.71194C192.648 7.69478 194.377 7.1862 196.548 7.1862C198.454 7.1862 199.828 7.58421 200.67 8.38025C201.557 9.13207 202 10.1492 202 11.4317C202 13.068 201.379 14.439 200.138 15.5446C198.942 16.606 197.169 17.1367 194.82 17.1367C191.23 17.1367 189.435 15.7215 189.435 12.8911ZM175.047 29.6743C174.914 31.3548 174.759 33.0132 174.581 34.6495C174.448 36.2858 174.315 37.8337 174.183 39.2931C174.05 40.7525 173.939 42.0571 173.85 43.2069C173.806 44.3568 173.784 45.2412 173.784 45.8604C173.784 47.0102 173.917 47.7842 174.183 48.1822C174.448 48.536 174.892 48.7129 175.512 48.7129C176 48.7129 176.421 48.6244 176.775 48.4475C177.13 48.2706 177.462 48.0716 177.773 47.8505C178.083 47.6294 178.349 47.4304 178.57 47.2535C178.836 47.0766 179.124 46.9881 179.435 46.9881C179.745 46.9881 180.033 47.165 180.299 47.5188C180.565 47.8726 180.698 48.6908 180.698 49.9733C180.698 52.4056 180.033 54.3294 178.703 55.7445C177.374 57.1597 175.091 57.8673 171.856 57.8673C168.664 57.8673 166.293 57.1376 164.742 55.6782C163.235 54.1746 162.482 51.897 162.482 48.8455C162.482 48.1822 162.504 47.4082 162.548 46.5238C162.637 45.595 162.747 44.401 162.88 42.9416C163.013 41.4822 163.169 39.6911 163.346 37.5683C163.567 35.4455 163.789 32.8142 164.011 29.6743H160.487C160.132 29.6743 159.911 29.6079 159.822 29.4753C159.778 29.2984 159.756 29.0551 159.756 28.7456L159.955 25.3624C159.999 24.7875 160.066 24.2347 160.155 23.704C160.288 23.1291 160.509 22.6205 160.819 22.1782C161.174 21.736 161.662 21.3822 162.282 21.1169C162.903 20.8515 163.723 20.7188 164.742 20.7188C165.052 19.9228 165.407 18.972 165.806 17.8664C166.205 16.7608 166.603 15.6994 167.002 14.6822C167.401 13.6208 167.778 12.7363 168.133 12.0287C168.531 11.3212 168.886 10.9674 169.196 10.9674H171.124C172.986 10.9674 174.271 11.5423 174.98 12.6921C175.689 13.8419 176.044 15.2129 176.044 16.805C176.044 17.6895 175.978 18.9941 175.845 20.7188H182.825C183.534 20.7188 183.889 21.0284 183.889 21.6475L183.623 25.2297C183.534 26.5565 183.158 27.6399 182.493 28.4802C181.872 29.2762 180.565 29.6743 178.57 29.6743H175.047ZM129.705 57.801C126.957 57.801 124.985 57.0713 123.788 55.6119C122.591 54.1524 121.993 51.7422 121.993 48.3812C121.993 47.8505 122.015 47.1871 122.059 46.3911C122.148 45.595 122.237 44.5779 122.325 43.3396C122.458 42.0571 122.613 40.4871 122.791 38.6297C122.968 36.7723 123.145 34.5168 123.322 31.8634C123.544 29.2099 123.766 26.0921 123.987 22.5099C124.253 18.9277 124.519 14.7706 124.785 10.0386C124.829 9.06569 124.94 8.49077 125.118 8.31388C125.25 8.1812 125.605 8.11487 126.181 8.11487H128.774C130.104 8.11487 131.212 8.26965 132.098 8.57922C132.985 8.88879 133.694 9.30893 134.226 9.83962C134.758 10.3703 135.134 10.9895 135.356 11.697C135.578 12.3604 135.688 13.068 135.688 13.8198C135.688 14.7043 135.622 15.9868 135.489 17.6673C135.4 19.3036 135.267 21.1611 135.09 23.2396C134.913 25.3181 134.735 27.4851 134.558 29.7406C134.381 31.996 134.204 34.163 134.026 36.2416C133.849 38.2759 133.694 40.1112 133.561 41.7475C133.472 43.3838 133.428 44.6221 133.428 45.4624C133.428 46.6122 133.627 47.4303 134.026 47.9168C134.469 48.4033 134.935 48.7571 135.422 48.9782C135.91 49.1551 136.353 49.2878 136.752 49.3762C137.195 49.4204 137.417 49.5531 137.417 49.7742C137.417 50.7472 137.306 51.7201 137.084 52.693C136.863 53.6217 136.464 54.4841 135.888 55.2802C135.312 56.032 134.514 56.6511 133.494 57.1376C132.519 57.5798 131.256 57.801 129.705 57.801ZM103.726 55.6119C104.923 57.0713 106.895 57.801 109.643 57.801C111.194 57.801 112.458 57.5798 113.433 57.1376C114.452 56.6511 115.25 56.032 115.826 55.2802C116.402 54.4841 116.801 53.6217 117.023 52.693C117.244 51.7201 117.355 50.7472 117.355 49.7742C117.355 49.5531 117.133 49.4204 116.69 49.3762C116.291 49.2878 115.848 49.1551 115.361 48.9782C114.873 48.7571 114.408 48.4033 113.964 47.9168C113.566 47.4303 113.366 46.6122 113.366 45.4624C113.366 44.6221 113.41 43.3838 113.499 41.7475C113.632 40.1112 113.787 38.2759 113.964 36.2416C114.142 34.163 114.319 31.996 114.496 29.7406C114.674 27.4851 114.851 25.3181 115.028 23.2396C115.205 21.1611 115.338 19.3036 115.427 17.6673C115.56 15.9868 115.627 14.7043 115.627 13.8198C115.627 13.068 115.516 12.3604 115.294 11.697C115.073 10.9895 114.696 10.3703 114.164 9.83962C113.632 9.30893 112.923 8.88879 112.036 8.57922C111.15 8.26965 110.042 8.11487 108.712 8.11487H106.119C105.543 8.11487 105.189 8.1812 105.056 8.31388C104.878 8.49077 104.768 9.06569 104.723 10.0386C104.457 14.7706 104.191 18.9277 103.926 22.5099C103.704 26.0921 103.482 29.2099 103.261 31.8634C103.083 34.5168 102.906 36.7723 102.729 38.6297C102.552 40.4871 102.396 42.0571 102.263 43.3396C102.175 44.5779 102.086 45.595 101.998 46.3911C101.953 47.1871 101.931 47.8505 101.931 48.3812C101.931 51.7422 102.529 54.1524 103.726 55.6119ZM57.7956 30.1386C58.7264 29.2983 59.9896 28.8782 61.5851 28.8782C63.4023 28.8782 64.6877 29.5416 65.4412 30.8683C66.1946 32.1508 66.5714 34.0303 66.5714 36.5069C66.5714 37.303 66.5049 38.4086 66.3719 39.8237C66.239 41.2389 65.9287 42.632 65.4412 44.0029C64.9979 45.3739 64.311 46.568 63.3802 47.5851C62.4937 48.5581 61.2527 49.0445 59.6571 49.0445C57.9729 49.0445 56.7097 48.4033 55.8676 47.1208C55.0255 45.794 54.6044 43.6049 54.6044 40.5534C54.6044 39.5363 54.6709 38.3643 54.8039 37.0376C54.9368 35.6667 55.2471 34.3841 55.7346 33.1901C56.2222 31.996 56.9092 30.9789 57.7956 30.1386Z" fill="#47982F"/>
</g>
<defs>
<filter id="filter0_i_6_3" x="0" y="-4.57764e-05" width="202" height="62" filterUnits="userSpaceOnUse" color-interpolation-filters="sRGB">
<feFlood flood-opacity="0" result="BackgroundImageFix"/>
<feBlend mode="normal" in="SourceGraphic" in2="BackgroundImageFix" result="shape"/>
<feColorMatrix in="SourceAlpha" type="matrix" values="0 0 0 0 0 0 0 0 0 0 0 0 0 0 0 0 0 0 127 0" result="hardAlpha"/>
<feOffset dy="4"/>
<feGaussianBlur stdDeviation="2"/>
<feComposite in2="hardAlpha" operator="arithmetic" k2="-1" k3="1"/>
<feColorMatrix type="matrix" values="0 0 0 0 0 0 0 0 0 0 0 0 0 0 0 0 0 0 0.07 0"/>
<feBlend mode="normal" in2="shape" result="effect1_innerShadow_6_3"/>
</filter>
</defs>
</svg>
