<svg width="64" height="64" viewBox="0 0 64 64" fill="none" xmlns="http://www.w3.org/2000/svg">
<path d="M61.8736 0.372002C62.6754 -0.43906 64.069 0.169364 63.9973 1.29918L63.2355 13.3052C63.2162 13.608 63.0832 13.8928 62.8623 14.1042L22.7412 52.1418C21.0577 53.673 19.819 53.673 17.3417 52.1418L8.55328 46.1249C8.0659 45.8049 7.87275 45.1924 8.09029 44.6568L11.0134 37.4594C11.3286 36.6833 12.3251 36.4422 12.9696 36.9862L17.2479 40.598C18.7367 41.8548 20.9608 41.7561 22.3287 40.3724L61.8736 0.372002Z" fill="#47982F"/>
<path d="M39.3068 40.0428L27.8653 50.9895C27.9916 51.8719 28.0924 52.5976 28.1677 53.1665C28.3164 54.3377 28.465 55.3381 28.6137 56.1677C28.7623 57.2901 29.0348 58.3149 29.4312 59.2421C29.778 60.2181 30.3478 61.0476 31.1406 61.7308C31.8838 62.4628 32.8995 63.024 34.1878 63.4144C35.4264 63.8048 37.0367 64 39.0186 64C40.9014 64 42.2392 63.8536 43.032 63.5608C43.8247 63.3168 44.2211 62.9264 44.2211 62.3896C44.2211 61.9504 44.0229 60.8036 43.6266 58.9493C43.2302 57.0949 42.6356 54.4353 41.8428 50.9706L39.3068 40.0428Z" fill="#47982F"/>
<path d="M14.9241 53.2405L7.17908 48.1551C5.71694 47.1951 5.13747 45.3575 5.79011 43.7506L8.71318 36.5533C9.65888 34.2247 12.6484 33.5016 14.5818 35.1337L18.6791 38.5926C19.3151 36.2723 19.951 34.0056 20.587 31.7925C21.3302 29.2061 22.222 26.2049 23.2625 22.789C23.9859 27.0957 24.611 30.8438 25.138 34.0332L35.3486 23.705C35.0676 22.5496 34.7797 21.3659 34.485 20.1538C34.2373 19.129 33.94 18.1042 33.5932 17.0795C33.2464 16.1035 32.8004 15.2251 32.2554 14.4443C31.7104 13.6635 31.0415 13.0291 30.2487 12.5411C29.4064 12.1019 28.3659 11.8823 27.1272 11.8823L19.3235 11.8823C17.9362 11.8823 16.97 12.3459 16.425 13.2731C15.9295 14.1515 15.1863 15.7131 14.1954 17.9579C13.1549 20.2026 12.0153 22.8134 10.7766 25.7901C9.53789 28.7669 8.2992 31.9145 7.06052 35.2328C5.77228 38.6 4.60792 41.8207 3.56742 44.8951C2.52692 47.9694 1.68461 50.7022 1.0405 53.0934C0.346833 55.5333 0 57.3389 0 58.5101C0 59.8277 0.421151 60.828 1.26346 61.5112C2.10576 62.2432 3.07194 62.78 4.16199 63.1216C5.25203 63.512 6.34207 63.7316 7.43212 63.7804C8.47262 63.878 9.2406 63.9268 9.73608 63.9268C10.8757 63.9268 11.6189 63.7804 11.9657 63.4876C12.263 63.2436 12.5355 62.658 12.7832 61.7308C13.5827 58.5812 14.2963 55.7511 14.9241 53.2405Z" fill="#47982F"/>
</svg>
