<svg width="202" height="58" viewBox="0 0 202 58" fill="none" xmlns="http://www.w3.org/2000/svg">
<path d="M55.2262 0.337126C55.9419 -0.397898 57.1858 0.153486 57.1218 1.17738L56.4418 12.0579C56.4246 12.3322 56.3059 12.5904 56.1087 12.7819L20.298 47.2535C18.7954 48.6412 17.6898 48.6412 15.4786 47.2535L7.63436 41.8007C7.19935 41.5107 7.02694 40.9556 7.22111 40.4702L9.83014 33.9476C10.1115 33.2442 11.001 33.0257 11.5762 33.5188L15.3949 36.7919C16.7237 37.9309 18.7089 37.8414 19.9298 36.5875L55.2262 0.337126Z" fill="#47982F"/>
<path fill-rule="evenodd" clip-rule="evenodd" d="M56.6172 15.3708L44.6439 27.0019C44.4744 29.3633 44.305 31.6029 44.1356 33.7208C43.9587 35.932 43.8039 37.8779 43.6712 39.5584C43.5828 41.239 43.5385 42.3667 43.5385 42.9416C43.5385 44.401 43.6712 46.0152 43.9366 47.7842C44.2019 49.5089 44.8432 51.1231 45.8603 52.6267C46.8775 54.1304 48.3811 55.3908 50.3712 56.4079C52.3613 57.3809 55.059 57.8673 58.4643 57.8673C61.2504 57.8673 63.6606 57.5135 65.695 56.8059C67.7735 56.0984 69.5425 55.1696 71.0019 54.0198C72.4613 52.87 73.6332 51.5432 74.5177 50.0396C75.4464 48.4918 76.154 46.9218 76.6405 45.3297C77.1712 43.6934 77.525 42.0571 77.7019 40.4208C77.923 38.7845 78.0336 37.2809 78.0336 35.9099C78.0336 30.6472 76.9501 26.6891 74.7831 24.0357C72.6603 21.3822 69.5867 20.0555 65.5623 20.0555C63.1742 20.0555 61.2504 20.542 59.791 21.5149C58.3316 22.4436 57.027 23.903 55.8771 25.8931C56.0983 22.9743 56.2752 20.4314 56.4078 18.2644C56.5034 17.0931 56.5732 16.1286 56.6172 15.3708ZM57.6682 30.1387C58.5969 29.2984 59.8573 28.8783 61.4494 28.8783C63.2626 28.8783 64.5451 29.5416 65.2969 30.8684C66.0487 32.1509 66.4247 34.0304 66.4247 36.507C66.4247 37.303 66.3583 38.4086 66.2256 39.8238C66.093 41.239 65.7834 42.632 65.2969 44.003C64.8547 45.3739 64.1692 46.568 63.2405 47.5852C62.356 48.5581 61.1177 49.0446 59.5257 49.0446C57.8451 49.0446 56.5847 48.4033 55.7445 47.1208C54.9042 45.7941 54.4841 43.605 54.4841 40.5535C54.4841 39.5363 54.5504 38.3644 54.6831 37.0376C54.8158 35.6667 55.1253 34.3842 55.6118 33.1901C56.0983 31.9961 56.7837 30.9789 57.6682 30.1387Z" fill="#47982F"/>
<path d="M35.0839 36.2888L24.8716 46.2092C24.9843 47.0089 25.0743 47.6666 25.1416 48.1822C25.2742 49.2436 25.4069 50.1502 25.5396 50.902C25.6722 51.9191 25.9155 52.8479 26.2693 53.6881C26.5788 54.5726 27.0874 55.3244 27.795 55.9436C28.4584 56.6069 29.365 57.1155 30.5148 57.4693C31.6204 57.8231 33.0577 58 34.8267 58C36.5072 58 37.7013 57.8673 38.4089 57.602C39.1165 57.3809 39.4702 57.0271 39.4702 56.5406C39.4702 56.1426 39.2934 55.1033 38.9396 53.4228C38.5858 51.7422 38.0551 49.332 37.3475 46.1921L35.0839 36.2888Z" fill="#47982F"/>
<path d="M13.3207 48.2492L6.4078 43.6406C5.10274 42.7705 4.58553 41.1053 5.16805 39.649L7.77708 33.1264C8.62118 31.0161 11.2896 30.3608 13.0152 31.8399L16.6723 34.9745C17.24 32.8717 17.8076 30.8175 18.3752 28.8119C19.0386 26.468 19.8346 23.7482 20.7633 20.6525C21.4089 24.5555 21.9669 27.9522 22.4373 30.8426L31.5509 21.4826C31.3001 20.4356 31.0432 19.3628 30.7802 18.2644C30.559 17.3357 30.2937 16.407 29.9841 15.4783C29.6746 14.5938 29.2765 13.7977 28.7901 13.0901C28.3036 12.3826 27.7066 11.8076 26.999 11.3654C26.2472 10.9674 25.3185 10.7684 24.2128 10.7684L17.2475 10.7684C16.0092 10.7684 15.1468 11.1885 14.6604 12.0288C14.2181 12.8248 13.5548 14.24 12.6703 16.2743C11.7416 18.3086 10.7244 20.6746 9.6188 23.3723C8.51319 26.07 7.40758 28.9225 6.30197 31.9297C5.15214 34.9812 4.11287 37.9 3.18416 40.6861C2.25544 43.4723 1.50363 45.9488 0.928712 48.1158C0.309571 50.3271 0 51.9634 0 53.0247C0 54.2188 0.375905 55.1254 1.12772 55.7445C1.87953 56.4079 2.74191 56.8944 3.71485 57.204C4.68778 57.5577 5.66072 57.7568 6.63365 57.801C7.56237 57.8894 8.24784 57.9337 8.69009 57.9337C9.70725 57.9337 10.3706 57.801 10.6802 57.5356C10.9455 57.3145 11.1888 56.7838 11.4099 55.9436C12.1235 53.0892 12.7604 50.5244 13.3207 48.2492Z" fill="#47982F"/>
<path d="M89.8819 57.204C88.5109 57.204 87.3832 57.0713 86.4987 56.806C85.6585 56.4964 84.973 56.0763 84.4423 55.5456C83.9558 55.0149 83.602 54.3736 83.3809 53.6218C83.204 52.8258 83.1156 51.9192 83.1156 50.902C83.1156 50.2387 83.1377 49.3099 83.1819 48.1159C83.2703 46.8776 83.403 45.1971 83.5799 43.0743C83.7568 40.9073 83.9558 38.1875 84.1769 34.9149C84.4423 31.5981 84.7519 27.5073 85.1057 22.6427C85.1499 21.6697 85.2604 21.0948 85.4373 20.9179C85.57 20.7852 85.9238 20.7189 86.4987 20.7189H89.0858C90.4568 20.7189 91.5624 20.8516 92.4027 21.1169C93.2872 21.3823 93.9726 21.7803 94.4591 22.311C94.9898 22.8417 95.3436 23.4829 95.5205 24.2347C95.7416 24.9865 95.8522 25.8268 95.8522 26.7555C95.8522 27.4189 95.808 28.4139 95.7195 29.7407C95.6311 31.0674 95.4984 32.8806 95.3215 35.1803C95.1888 37.4357 94.9898 40.2661 94.7245 43.6713C94.4591 47.0324 94.1274 51.101 93.7294 55.8773C93.6852 56.408 93.5746 56.7618 93.3977 56.9387C93.2208 57.1155 92.8449 57.204 92.27 57.204H89.8819Z" fill="#47982F"/>
<path d="M85.172 12.8912C85.172 11.1222 85.8132 9.72914 87.0958 8.71198C88.3783 7.69482 90.103 7.18624 92.27 7.18624C94.1717 7.18624 95.5426 7.58426 96.3829 8.38029C97.2674 9.13211 97.7096 10.1493 97.7096 11.4318C97.7096 13.0681 97.0905 14.439 95.8522 15.5446C94.6581 16.606 92.8891 17.1367 90.5452 17.1367C86.9631 17.1367 85.172 15.7215 85.172 12.8912Z" fill="#47982F"/>
<path d="M145.191 56.806C146.076 57.0713 147.203 57.204 148.574 57.204H150.962C151.537 57.204 151.913 57.1155 152.09 56.9387C152.267 56.7618 152.377 56.408 152.422 55.8773C152.82 51.101 153.151 47.0324 153.417 43.6713C153.682 40.2661 153.881 37.4357 154.014 35.1803C154.191 32.8806 154.323 31.0674 154.412 29.7407C154.5 28.4139 154.544 27.4189 154.544 26.7555C154.544 25.8268 154.434 24.9865 154.213 24.2347C154.036 23.4829 153.682 22.8417 153.151 22.311C152.665 21.7803 151.979 21.3823 151.095 21.1169C150.255 20.8516 149.149 20.7189 147.778 20.7189H145.191C144.616 20.7189 144.262 20.7852 144.13 20.9179C143.953 21.0948 143.842 21.6697 143.798 22.6427C143.444 27.5073 143.135 31.5981 142.869 34.9149C142.648 38.1875 142.449 40.9073 142.272 43.0743C142.095 45.1971 141.963 46.8776 141.874 48.1159C141.83 49.3099 141.808 50.2387 141.808 50.902C141.808 51.9192 141.896 52.8258 142.073 53.6218C142.294 54.3736 142.648 55.0149 143.135 55.5456C143.665 56.0763 144.351 56.4964 145.191 56.806Z" fill="#47982F"/>
<path d="M145.788 8.71198C144.506 9.72914 143.864 11.1222 143.864 12.8912C143.864 15.7215 145.655 17.1367 149.238 17.1367C151.581 17.1367 153.35 16.606 154.544 15.5446C155.783 14.439 156.402 13.0681 156.402 11.4318C156.402 10.1493 155.96 9.13211 155.075 8.38029C154.235 7.58426 152.864 7.18624 150.962 7.18624C148.795 7.18624 147.071 7.69482 145.788 8.71198Z" fill="#47982F"/>
<path d="M193.727 57.204C192.356 57.204 191.228 57.0713 190.344 56.806C189.504 56.4964 188.818 56.0763 188.287 55.5456C187.801 55.0149 187.447 54.3736 187.226 53.6218C187.049 52.8258 186.961 51.9192 186.961 50.902C186.961 50.2387 186.983 49.3099 187.027 48.1159C187.116 46.8776 187.248 45.1971 187.425 43.0743C187.602 40.9073 187.801 38.1875 188.022 34.9149C188.287 31.5981 188.597 27.5073 188.951 22.6427C188.995 21.6697 189.106 21.0948 189.283 20.9179C189.415 20.7852 189.769 20.7189 190.344 20.7189H192.931C194.302 20.7189 195.408 20.8516 196.248 21.1169C197.132 21.3823 197.818 21.7803 198.304 22.311C198.835 22.8417 199.189 23.4829 199.366 24.2347C199.587 24.9865 199.697 25.8268 199.697 26.7555C199.697 27.4189 199.653 28.4139 199.565 29.7407C199.476 31.0674 199.344 32.8806 199.167 35.1803C199.034 37.4357 198.835 40.2661 198.57 43.6713C198.304 47.0324 197.973 51.101 197.575 55.8773C197.53 56.408 197.42 56.7618 197.243 56.9387C197.066 57.1155 196.69 57.204 196.115 57.204H193.727Z" fill="#47982F"/>
<path d="M189.017 12.8912C189.017 11.1222 189.658 9.72914 190.941 8.71198C192.223 7.69482 193.948 7.18624 196.115 7.18624C198.017 7.18624 199.388 7.58426 200.228 8.38029C201.113 9.13211 201.555 10.1493 201.555 11.4318C201.555 13.0681 200.936 14.439 199.697 15.5446C198.503 16.606 196.734 17.1367 194.39 17.1367C190.808 17.1367 189.017 15.7215 189.017 12.8912Z" fill="#47982F"/>
<path d="M174.661 29.6743C174.528 31.3548 174.374 33.0132 174.197 34.6496C174.064 36.2859 173.931 37.8337 173.799 39.2931C173.666 40.7525 173.555 42.0571 173.467 43.207C173.423 44.3568 173.401 45.2413 173.401 45.8604C173.401 47.0103 173.533 47.7842 173.799 48.1822C174.064 48.536 174.506 48.7129 175.125 48.7129C175.612 48.7129 176.032 48.6245 176.386 48.4476C176.74 48.2707 177.071 48.0716 177.381 47.8505C177.69 47.6294 177.956 47.4304 178.177 47.2535C178.442 47.0766 178.73 46.9882 179.039 46.9882C179.349 46.9882 179.636 47.165 179.902 47.5188C180.167 47.8726 180.3 48.6908 180.3 49.9733C180.3 52.4056 179.636 54.3294 178.31 55.7446C176.983 57.1598 174.705 57.8673 171.477 57.8673C168.293 57.8673 165.927 57.1376 164.379 55.6782C162.875 54.1746 162.123 51.8971 162.123 48.8456C162.123 48.1822 162.146 47.4083 162.19 46.5238C162.278 45.5951 162.389 44.401 162.521 42.9416C162.654 41.4822 162.809 39.6911 162.986 37.5684C163.207 35.4456 163.428 32.8142 163.649 29.6743H160.133C159.78 29.6743 159.558 29.608 159.47 29.4753C159.426 29.2984 159.404 29.0552 159.404 28.7456L159.603 25.3624C159.647 24.7875 159.713 24.2347 159.802 23.704C159.934 23.1291 160.155 22.6205 160.465 22.1783C160.819 21.736 161.305 21.3822 161.924 21.1169C162.544 20.8516 163.362 20.7189 164.379 20.7189C164.688 19.9228 165.042 18.972 165.44 17.8664C165.838 16.7608 166.236 15.6994 166.634 14.6823C167.032 13.6209 167.408 12.7364 167.762 12.0288C168.16 11.3212 168.514 10.9674 168.823 10.9674H170.747C172.605 10.9674 173.887 11.5423 174.595 12.6922C175.302 13.842 175.656 15.2129 175.656 16.805C175.656 17.6895 175.59 18.9941 175.457 20.7189H182.422C183.13 20.7189 183.484 21.0285 183.484 21.6476L183.218 25.2298C183.13 26.5565 182.754 27.64 182.091 28.4803C181.472 29.2763 180.167 29.6743 178.177 29.6743H174.661Z" fill="#47982F"/>
<path d="M129.419 57.801C126.677 57.801 124.709 57.0713 123.515 55.6119C122.321 54.1525 121.724 51.7423 121.724 48.3812C121.724 47.8505 121.746 47.1871 121.79 46.3911C121.879 45.5951 121.967 44.5779 122.056 43.3396C122.188 42.0571 122.343 40.4872 122.52 38.6297C122.697 36.7723 122.874 34.5169 123.051 31.8634C123.272 29.2099 123.493 26.0921 123.714 22.5099C123.979 18.9278 124.245 14.7707 124.51 10.0387C124.554 9.06574 124.665 8.49082 124.842 8.31392C124.974 8.18125 125.328 8.11491 125.903 8.11491H128.49C129.817 8.11491 130.923 8.2697 131.807 8.57927C132.692 8.88884 133.399 9.30897 133.93 9.83966C134.461 10.3704 134.836 10.9895 135.058 11.6971C135.279 12.3605 135.389 13.068 135.389 13.8199C135.389 14.7043 135.323 15.9869 135.19 17.6674C135.102 19.3037 134.969 21.1611 134.792 23.2396C134.615 25.3182 134.438 27.4852 134.262 29.7406C134.085 31.9961 133.908 34.1631 133.731 36.2416C133.554 38.2759 133.399 40.1112 133.267 41.7475C133.178 43.3838 133.134 44.6221 133.134 45.4624C133.134 46.6122 133.333 47.4304 133.731 47.9168C134.173 48.4033 134.637 48.7571 135.124 48.9782C135.61 49.1551 136.053 49.2878 136.451 49.3762C136.893 49.4205 137.114 49.5531 137.114 49.7743C137.114 50.7472 137.003 51.7201 136.782 52.6931C136.561 53.6218 136.163 54.4842 135.588 55.2802C135.013 56.032 134.217 56.6512 133.2 57.1376C132.227 57.5799 130.967 57.801 129.419 57.801Z" fill="#47982F"/>
<path d="M103.497 55.6119C104.692 57.0713 106.66 57.801 109.401 57.801C110.949 57.801 112.21 57.5799 113.183 57.1376C114.2 56.6512 114.996 56.032 115.571 55.2802C116.146 54.4842 116.544 53.6218 116.765 52.6931C116.986 51.7201 117.096 50.7472 117.096 49.7743C117.096 49.5531 116.875 49.4205 116.433 49.3762C116.035 49.2878 115.593 49.1551 115.106 48.9782C114.62 48.7571 114.156 48.4033 113.713 47.9168C113.315 47.4304 113.116 46.6122 113.116 45.4624C113.116 44.6221 113.16 43.3838 113.249 41.7475C113.382 40.1112 113.536 38.2759 113.713 36.2416C113.89 34.1631 114.067 31.9961 114.244 29.7406C114.421 27.4852 114.598 25.3182 114.775 23.2396C114.952 21.1611 115.084 19.3037 115.173 17.6674C115.305 15.9869 115.372 14.7043 115.372 13.8199C115.372 13.068 115.261 12.3605 115.04 11.6971C114.819 10.9895 114.443 10.3704 113.912 9.83966C113.382 9.30897 112.674 8.88884 111.79 8.57927C110.905 8.2697 109.799 8.11491 108.473 8.11491H105.886C105.311 8.11491 104.957 8.18125 104.824 8.31392C104.647 8.49082 104.537 9.06574 104.493 10.0387C104.227 14.7707 103.962 18.9278 103.696 22.5099C103.475 26.0921 103.254 29.2099 103.033 31.8634C102.856 34.5169 102.679 36.7723 102.502 38.6297C102.326 40.4872 102.171 42.0571 102.038 43.3396C101.95 44.5779 101.861 45.5951 101.773 46.3911C101.728 47.1871 101.706 47.8505 101.706 48.3812C101.706 51.7423 102.303 54.1525 103.497 55.6119Z" fill="#47982F"/>
</svg>
